<?xml version="1.0" standalone="no"?>
<!DOCTYPE svg PUBLIC "-//W3C//DTD SVG 1.1//EN" "http://www.w3.org/Graphics/SVG/1.1/DTD/svg11.dtd" >
<svg xmlns="http://www.w3.org/2000/svg" xmlns:xlink="http://www.w3.org/1999/xlink" version="1.1">
<metadata></metadata>
<defs>
<font id="proxima_nova_extra_condeXBdIt" horiz-adv-x="905" >
<font-face units-per-em="2048" ascent="1618" descent="-430" />
<missing-glyph horiz-adv-x="325" />
<glyph unicode="&#xfb01;" horiz-adv-x="980" d="M6 0l166 748h-90l55 241h88l15 70q37 168 116.5 247.5t208.5 79.5q96 0 168 -32l-88 -215q-15 12 -37 12q-36 0 -60 -25t-32 -67l-14 -70h121l-56 -241h-118l-166 -748h-277zM508 0l219 989h279l-220 -989h-278zM756 1229q0 85 59 136.5t127 51.5q63 0 105.5 -41 t42.5 -100q0 -84 -58.5 -135t-128.5 -51q-64 0 -105.5 40.5t-41.5 98.5z" />
<glyph unicode="&#xfb02;" horiz-adv-x="980" d="M6 0l166 748h-90l55 241h88l15 70q37 168 116.5 247.5t208.5 79.5q96 0 168 -32l-88 -215q-15 12 -37 12q-36 0 -60 -25t-32 -67l-14 -70h121l-56 -241h-118l-166 -748h-277zM508 0l301 1366h278l-301 -1366h-278z" />
<glyph unicode="&#xfb03;" horiz-adv-x="1517" d="M6 0l166 748h-90l55 241h88l15 70q12 57 28 103t42.5 89t61 71.5t84 46t109.5 17.5q66 0 125.5 -17.5t87.5 -43.5l-106 -205q-28 31 -62 31q-77 0 -94 -92l-14 -70h121l-56 -241h-118l-166 -748h-277zM543 0l166 748h-91l56 241h88l14 70q37 168 116.5 247.5t209.5 79.5 q96 0 168 -32l-88 -215q-15 12 -37 12q-36 0 -60 -25t-32 -67l-15 -70h121l-55 -241h-119l-166 -748h-276zM1044 0l220 989h278l-219 -989h-279zM1292 1229q0 85 59 136.5t128 51.5q63 0 105 -41t42 -100q0 -84 -58.5 -135t-127.5 -51q-64 0 -106 40.5t-42 98.5z" />
<glyph unicode="&#xfb04;" horiz-adv-x="1517" d="M6 0l166 748h-90l55 241h88l15 70q12 57 28 103t42.5 89t61 71.5t84 46t109.5 17.5q66 0 125.5 -17.5t87.5 -43.5l-106 -205q-28 31 -62 31q-77 0 -94 -92l-14 -70h121l-56 -241h-118l-166 -748h-277zM543 0l166 748h-91l56 241h88l14 70q37 168 116.5 247.5t209.5 79.5 q96 0 168 -32l-88 -215q-15 12 -37 12q-36 0 -60 -25t-32 -67l-15 -70h121l-55 -241h-119l-166 -748h-276zM1044 0l302 1366h278l-301 -1366h-279z" />
<glyph horiz-adv-x="0" />
<glyph horiz-adv-x="0" />
<glyph horiz-adv-x="682" />
<glyph unicode="&#xd;" horiz-adv-x="0" />
<glyph unicode=" "  horiz-adv-x="325" />
<glyph unicode="&#x09;" horiz-adv-x="325" />
<glyph unicode="&#xa0;" horiz-adv-x="325" />
<glyph unicode="!" horiz-adv-x="530" d="M14 135q0 77 56 133t133 56q66 0 111.5 -47t45.5 -113q0 -76 -56.5 -132.5t-133.5 -56.5q-66 0 -111 47t-45 113zM133 455l158 911h334l-246 -911h-246z" />
<glyph unicode="&#x22;" horiz-adv-x="849" d="M229 758q15 421 15 456q3 74 52.5 123t119.5 49q55 0 93 -37.5t38 -95.5q0 -35 -17 -63l-182 -432h-119zM614 758q15 421 15 456q1 73 51 122.5t121 49.5q53 0 91 -38t38 -95q0 -25 -15 -63l-182 -432h-119z" />
<glyph unicode="#" horiz-adv-x="964" d="M-49 0l155 344h-110l78 174h114l148 328h-115l76 172h117l155 348h203l-156 -348h119l154 348h203l-156 -348h113l-76 -172h-115l-149 -328h120l-79 -174h-121l-156 -344h-203l160 344h-123l-153 -344h-203zM389 518h119l147 328h-118z" />
<glyph unicode="$" horiz-adv-x="843" d="M-51 139l174 230q35 -54 94.5 -86.5t120.5 -32.5q55 0 93 40t38 105q0 40 -33.5 82t-81 84.5t-95 91t-81 119.5t-33.5 152q0 173 108.5 302.5t274.5 155.5l43 191h205l-45 -201q136 -38 215 -123l-162 -231q-34 45 -83.5 70.5t-104.5 25.5q-56 0 -88.5 -38t-32.5 -91 q0 -41 33 -84t79.5 -85t93 -90.5t79.5 -119.5t33 -153q0 -175 -102.5 -307.5t-268.5 -161.5l-41 -189h-205l43 193q-88 17 -158.5 56.5t-111.5 94.5z" />
<glyph unicode="%" horiz-adv-x="1220" d="M145 965q0 175 97.5 298t226.5 123q112 0 177 -73.5t65 -184.5q0 -176 -97 -299.5t-227 -123.5q-112 0 -177 73.5t-65 186.5zM156 0l876 1366h115l-879 -1366h-112zM326 981q0 -56 17.5 -81.5t55.5 -25.5q46 0 88.5 72t42.5 164q0 109 -73 109q-46 0 -88.5 -72.5 t-42.5 -165.5zM588 233q0 176 97.5 300t225.5 124q113 0 177.5 -73.5t64.5 -186.5q0 -175 -97.5 -298.5t-226.5 -123.5q-113 0 -177 73t-64 185zM766 252q0 -109 76 -109q46 0 89.5 72.5t43.5 165.5q0 108 -76 108q-46 0 -89.5 -72.5t-43.5 -164.5z" />
<glyph unicode="&#x26;" horiz-adv-x="964" d="M0 291q0 93 25.5 170.5t73.5 136t98.5 99t119.5 81.5q-20 97 -20 189q0 175 105.5 297t248.5 122q121 0 192.5 -71t71.5 -201q0 -45 -11 -86.5t-25.5 -73t-44.5 -65.5t-51 -54.5t-64 -50.5t-65.5 -44t-71.5 -44q8 -29 34 -104q7 -24 21 -65.5t18 -55.5q40 70 107 213 l194 -117q-103 -210 -206 -338q48 -115 102 -229h-272q-18 37 -23 49q-120 -74 -246 -74q-140 0 -225.5 83.5t-85.5 232.5zM283 336q0 -60 26.5 -101.5t71.5 -41.5q47 0 100 43q-29 69 -63 176q-9 26 -24 74.5t-19 60.5q-92 -92 -92 -211zM537 963q0 -38 2 -56 q68 45 103.5 93t35.5 110q0 44 -11.5 61t-35.5 17q-37 0 -65.5 -69t-28.5 -156z" />
<glyph unicode="'" horiz-adv-x="468" d="M229 758q15 421 15 456q3 74 52.5 123t119.5 49q55 0 93 -37.5t38 -95.5q0 -35 -17 -63l-182 -432h-119z" />
<glyph unicode="(" horiz-adv-x="577" d="M49 102q0 706 483 1301l183 -111q-175 -293 -278 -644t-103 -681q0 -141 18 -303l-219 -72q-84 239 -84 510z" />
<glyph unicode=")" horiz-adv-x="577" d="M-137 -297q175 293 277 643.5t102 681.5q0 150 -17 303l219 72q84 -239 84 -510q0 -706 -483 -1301z" />
<glyph unicode="*" horiz-adv-x="673" d="M127 999l221 78l-176 121l94 107l158 -136l41 217h137l-63 -231l213 98l41 -123l-218 -77l175 -121l-95 -107l-161 136l-35 -218h-137l59 232l-215 -98z" />
<glyph unicode="+" horiz-adv-x="790" d="M82 606l39 168h241l62 277h184l-59 -277h242l-37 -168h-242l-66 -291h-186l64 291h-242z" />
<glyph unicode="," horiz-adv-x="530" d="M-37 -170q63 29 122 75t83 97q-4 -2 -23 -2q-55 0 -93 37.5t-38 103.5q0 74 59 128.5t132 54.5q69 0 117.5 -46t48.5 -128q0 -119 -88.5 -237.5t-221.5 -182.5z" />
<glyph unicode="-" horiz-adv-x="499" d="M35 379l51 233h377l-51 -233h-377z" />
<glyph unicode="." horiz-adv-x="530" d="M14 135q0 76 57 132.5t132 56.5q67 0 112 -46.5t45 -113.5q0 -77 -56 -133t-134 -56q-64 0 -110 47t-46 113z" />
<glyph unicode="/" horiz-adv-x="493" d="M-123 -41l621 1448h198l-622 -1448h-197z" />
<glyph unicode="0" horiz-adv-x="970" d="M55 438q0 168 45 338t121 305t186 220t230 85q163 0 260.5 -120t97.5 -340q0 -169 -44.5 -339.5t-120 -306t-185.5 -220.5t-231 -85q-161 0 -260 121.5t-99 341.5zM358 385q0 -66 18 -100.5t66 -34.5q53 0 102 89t80 212t49.5 241t18.5 187q0 66 -18 99.5t-66 33.5 q-53 0 -102.5 -88.5t-80 -211.5t-49 -240t-18.5 -187z" />
<glyph unicode="1" horiz-adv-x="772" d="M111 965l487 401h268l-301 -1366h-309l213 969l-223 -189z" />
<glyph unicode="2" horiz-adv-x="954" d="M-37 0l70 309q70 62 169 148t149 130t116 104.5t97.5 94.5t63.5 75t44 72.5t12 61.5q0 55 -33 86t-92 31q-66 0 -119.5 -26.5t-111.5 -92.5l-150 205q82 87 187 137.5t225 50.5q186 0 302 -93.5t116 -260.5q0 -60 -12 -112.5t-51 -115t-68 -103.5t-110 -122t-127 -124 t-166 -152l-36 -33h408l-60 -270h-823z" />
<glyph unicode="3" horiz-adv-x="952" d="M-35 252l244 158q28 -76 84 -118t127 -42q54 0 93 31.5t55 74.5t16 90q0 54 -40 82.5t-98 28.5t-81 -4l61 278q14 -2 113 -2q76 0 115.5 51.5t39.5 123.5q0 54 -38.5 81t-108.5 27q-51 0 -103.5 -26t-89.5 -72l-159 186q175 186 405 186q183 0 297.5 -83t114.5 -234 q0 -144 -95 -250t-219 -127q65 -21 108.5 -66t61 -95t17.5 -105q0 -188 -134.5 -319.5t-330.5 -131.5q-100 0 -192.5 31.5t-163.5 95.5t-99 150z" />
<glyph unicode="4" horiz-adv-x="948" d="M-18 272l67 299l582 795h375l-183 -821h101l-60 -273h-100l-59 -272h-310l58 272h-471zM293 545h221l102 463z" />
<glyph unicode="5" horiz-adv-x="966" d="M-23 250l238 160q27 -75 81.5 -117.5t119.5 -42.5q76 0 130 76.5t54 175.5q0 58 -31 92.5t-90 34.5q-89 0 -164 -88l-211 75l166 750h768l-59 -270h-457l-67 -305q76 90 200 90q122 0 196.5 -88t74.5 -244q0 -151 -61 -281t-178.5 -211.5t-266.5 -81.5 q-167 0 -278.5 72.5t-164.5 202.5z" />
<glyph unicode="6" horiz-adv-x="956" d="M49 436q0 90 17 191.5t49.5 209t87 205t122.5 175t163 123.5t202 46q111 0 199.5 -46t136.5 -126l-201 -208q-15 50 -54 78t-97 28q-83 0 -152 -93.5t-108 -227.5q-8 -23 -15 -58q45 71 113 111.5t139 40.5q117 0 192 -84.5t75 -229.5q0 -108 -33.5 -213.5t-93.5 -191 t-152.5 -138.5t-200.5 -53q-187 0 -288 120.5t-101 340.5zM348 397q0 -147 96 -147q46 0 83 47t54 105.5t17 109.5q0 54 -25.5 89.5t-72.5 35.5q-77 0 -140 -119q-12 -44 -12 -121z" />
<glyph unicode="7" horiz-adv-x="862" d="M27 0l581 1096h-444l59 270h797l-47 -213l-604 -1153h-342z" />
<glyph unicode="8" horiz-adv-x="954" d="M0 297q0 86 34 168.5t110 154.5t184 107q-68 35 -112 106t-44 158q0 114 64 206t164 140.5t212 48.5q78 0 147.5 -17t129.5 -52.5t95.5 -99t35.5 -148.5q0 -141 -87.5 -248t-221.5 -137q85 -44 128.5 -121t43.5 -170q0 -181 -126 -299.5t-329 -118.5q-211 0 -319.5 77 t-108.5 245zM322 362q0 -54 28 -83t76 -29q62 0 107 59t45 144q0 57 -26.5 95t-53.5 48q-70 -17 -123 -79t-53 -155zM469 932q0 -42 23.5 -78t50.5 -55q159 61 159 215q0 47 -25.5 72.5t-70.5 25.5q-61 0 -99 -52t-38 -128z" />
<glyph unicode="9" horiz-adv-x="956" d="M8 150l201 208q37 -106 151 -106q57 0 110 47.5t89.5 118t61.5 155.5q8 19 16 58q-46 -70 -114 -111t-140 -41q-116 0 -191 85t-75 229q0 108 33.5 213.5t93.5 191t152.5 138.5t201.5 53q187 0 287 -120t100 -341q0 -76 -12 -162t-37.5 -178.5t-62 -180t-90 -166 t-117 -137t-147 -93t-175.5 -34.5q-109 0 -197.5 46.5t-138.5 126.5zM440 852q0 -55 24.5 -90t72.5 -35q42 0 74.5 31t64.5 88q12 58 12 121q0 147 -96 147q-47 0 -83 -47t-52.5 -105.5t-16.5 -109.5z" />
<glyph unicode=":" horiz-adv-x="530" d="M14 135q0 77 56 133t133 56q66 0 111.5 -47t45.5 -113q0 -77 -56 -133t-132 -56q-66 0 -112 47t-46 113zM162 813q0 78 56.5 134.5t133.5 56.5q66 0 112 -47t46 -113q0 -78 -55.5 -134.5t-132.5 -56.5q-66 0 -113 47.5t-47 112.5z" />
<glyph unicode=";" horiz-adv-x="530" d="M-37 -170q63 29 122 75t83 97q-4 -2 -23 -2q-55 0 -93 37.5t-38 103.5q0 74 59 128.5t132 54.5q69 0 117.5 -46t48.5 -128q0 -119 -88.5 -237.5t-221.5 -182.5zM164 813q0 78 56 134.5t134 56.5q66 0 112 -47t46 -113q0 -78 -56 -134.5t-134 -56.5q-64 0 -111 47.5 t-47 112.5z" />
<glyph unicode="&#x3c;" horiz-adv-x="790" d="M78 586l43 200l731 273l-45 -209l-514 -174l436 -170l-43 -193z" />
<glyph unicode="=" horiz-adv-x="790" d="M39 408l37 167h669l-36 -167h-670zM123 793l37 168h671l-38 -168h-670z" />
<glyph unicode="&#x3e;" horiz-adv-x="790" d="M16 313l50 209l512 170l-439 174l43 193l611 -273l-45 -200z" />
<glyph unicode="?" horiz-adv-x="679" d="M92 135q0 77 56.5 133t134.5 56q65 0 111 -47t46 -113q0 -76 -56.5 -132.5t-133.5 -56.5q-66 0 -112 47t-46 113zM190 549q0 67 20.5 125.5t51.5 97.5t67.5 77t67.5 66.5t51.5 63.5t20.5 70q0 34 -19.5 56.5t-56.5 22.5q-58 0 -106 -45l-84 201q130 102 291 102 q128 0 213.5 -71t85.5 -182q0 -79 -35.5 -150t-86 -122.5t-101 -97.5t-86 -96t-35.5 -98q0 -38 10 -65l-250 -78q-19 59 -19 123z" />
<glyph unicode="@" horiz-adv-x="1337" d="M113 438q0 166 59 325t157 278.5t235 192.5t284 73q202 0 330.5 -133t128.5 -357q0 -170 -48 -318t-132 -236.5t-183 -88.5q-72 0 -123 35.5t-63 97.5l-2 21q-31 -47 -61 -77.5t-77 -53.5t-102 -23q-83 0 -140 62.5t-57 205.5q0 104 29 207t79.5 185.5t126.5 134 t163 51.5q59 0 96 -34t51 -93l23 98h243l-104 -493q-6 -30 -6 -56q0 -82 57 -82q15 0 33.5 19.5t37 59.5t34 93t25.5 126.5t10 154.5q0 194 -100.5 303t-272.5 109q-174 0 -325 -115t-236.5 -294.5t-85.5 -371.5q0 -86 15 -161t47 -139t80.5 -109.5t118.5 -71.5t156 -26 q87 0 160 27.5t154 84.5l43 -63q-181 -129 -367 -129q-239 0 -365 155t-126 426zM575 485q0 -116 74 -116q22 0 41 8.5t36.5 29.5t25 32t24.5 38l53 258q-16 90 -73 90t-100 -59t-62 -134.5t-19 -146.5z" />
<glyph unicode="A" horiz-adv-x="929" d="M-117 0l594 1366h357l-9 -1366h-311l14 221h-237l-82 -221h-326zM389 492h164l35 534z" />
<glyph unicode="B" horiz-adv-x="976" d="M-14 0l301 1366h389q165 0 255.5 -86.5t90.5 -216.5q0 -138 -81 -252t-208 -131q82 -22 125 -92.5t43 -159.5q0 -61 -14 -120.5t-45.5 -115.5t-76.5 -98.5t-111.5 -68t-145.5 -25.5h-522zM354 270h86q65 0 107.5 53.5t42.5 131.5q0 104 -105 104h-67zM479 829h78 q60 0 98.5 52t38.5 116q0 49 -29.5 74t-82.5 25h-45z" />
<glyph unicode="C" horiz-adv-x="917" d="M53 432q0 72 10 155t33 176t56 181.5t83 169.5t110 142t141.5 97t172.5 36q79 0 141.5 -25.5t103 -66.5t67.5 -98t39 -115.5t14 -122.5l-287 -56q-7 209 -96 209q-60 0 -114.5 -80.5t-87.5 -194t-52.5 -226t-19.5 -187.5q0 -176 92 -176q83 0 162 164l247 -101 q-74 -166 -176.5 -252t-247.5 -86q-189 0 -290 121.5t-101 335.5z" />
<glyph unicode="D" horiz-adv-x="1024" d="M-14 0l301 1366h370q74 0 141.5 -30t121 -86.5t85 -146t31.5 -200.5q0 -68 -9.5 -144t-32 -164.5t-57 -171.5t-88 -161t-120.5 -135.5t-160 -92t-200 -34.5h-383zM354 270h58h10q61 0 113 50t85.5 124t57 162.5t33.5 163.5t10 129q0 98 -34 147.5t-85 49.5h-65z" />
<glyph unicode="E" horiz-adv-x="802" d="M-14 0l301 1366h643l-62 -270h-331l-58 -267h318l-60 -270h-319l-64 -289h334l-59 -270h-643z" />
<glyph unicode="F" horiz-adv-x="794" d="M-14 0l301 1366h643l-62 -270h-331l-58 -267h318l-60 -270h-319l-123 -559h-309z" />
<glyph unicode="G" horiz-adv-x="970" d="M53 432q0 92 16 195.5t47 211.5t82 206t116 175t154 123t191 46q91 0 159.5 -31t108.5 -86t59.5 -122.5t21.5 -148.5l-260 -63q-2 76 -28 126t-79 50q-59 0 -112.5 -77t-87.5 -187.5t-54 -225.5t-20 -198q0 -96 22 -136t72 -40q64 0 127 78l37 168h-140l62 270h409 l-122 -551q-157 -240 -390 -240q-191 0 -291 123.5t-100 333.5z" />
<glyph unicode="H" horiz-adv-x="1040" d="M-14 0l301 1366h309l-117 -528h230l116 528h310l-301 -1366h-310l125 567h-229l-125 -567h-309z" />
<glyph unicode="I" horiz-adv-x="501" d="M-14 0l301 1366h309l-301 -1366h-309z" />
<glyph unicode="J" horiz-adv-x="741" d="M-78 57l119 248q21 -26 54.5 -40.5t66.5 -14.5q119 0 149 133l217 983h312l-222 -999q-46 -205 -147.5 -298.5t-282.5 -93.5q-78 0 -149 21t-117 61z" />
<glyph unicode="K" horiz-adv-x="1017" d="M-14 0l301 1366h309l-121 -553l359 553h354l-467 -639l190 -727h-327l-97 492l-122 -179l-70 -313h-309z" />
<glyph unicode="L" horiz-adv-x="778" d="M-14 0l301 1366h309l-242 -1096h334l-59 -270h-643z" />
<glyph unicode="M" horiz-adv-x="1323" d="M-14 0l301 1366h381l34 -639l326 639h389l-301 -1366h-305l164 745l-375 -745h-100l-41 745l-164 -745h-309z" />
<glyph unicode="N" horiz-adv-x="1040" d="M-14 0l301 1366h309l90 -631l139 631h310l-301 -1366h-289l-105 664l-145 -664h-309z" />
<glyph unicode="O" horiz-adv-x="1024" d="M53 432q0 72 10.5 155.5t33.5 176.5t57 181.5t84 169.5t110 141.5t140.5 96.5t170.5 36q129 0 219 -63t131.5 -165t41.5 -233q0 -72 -10.5 -155.5t-34 -176t-57.5 -180.5t-84 -168.5t-110.5 -140.5t-140.5 -96t-170 -36q-192 0 -291.5 127t-99.5 330zM367 426 q0 -176 92 -176q60 0 114.5 79.5t88 192t53.5 224.5t20 188q0 180 -94 180q-60 0 -114 -79.5t-87.5 -193t-53 -226t-19.5 -189.5z" />
<glyph unicode="P" horiz-adv-x="960" d="M-14 0l301 1366h381q159 0 256.5 -103.5t97.5 -261.5q0 -102 -33 -194t-95.5 -166t-164.5 -118t-229 -44h-99l-106 -479h-309zM461 750h65q79 0 126.5 66.5t47.5 152.5q0 60 -28.5 93.5t-75.5 33.5h-59z" />
<glyph unicode="Q" horiz-adv-x="1026" d="M53 432q0 72 10.5 155.5t33.5 176.5t57 181.5t84 169.5t110 141.5t140.5 96.5t170.5 36q129 0 219 -63t131.5 -165t41.5 -233q0 -92 -17.5 -200t-52 -222t-93.5 -221t-134 -179l22 -137l-225 -43l-10 62q-50 -13 -97 -13q-192 0 -291.5 127t-99.5 330zM367 426 q0 -176 92 -176q23 0 39 8l-33 203l186 33q38 111 61 235.5t23 204.5q0 180 -94 180q-60 0 -114 -79.5t-87.5 -193t-53 -226t-19.5 -189.5z" />
<glyph unicode="R" horiz-adv-x="993" d="M-14 0l301 1366h383q153 0 252.5 -105.5t99.5 -261.5t-79.5 -289.5t-176.5 -172.5l59 -537h-323l-27 479h-74l-106 -479h-309zM461 750h65h2q75 0 122.5 66t47.5 153q0 64 -28 95.5t-74 31.5h-59z" />
<glyph unicode="S" horiz-adv-x="851" d="M-51 139l174 230q35 -54 94.5 -86.5t120.5 -32.5q55 0 93 40t38 105q0 40 -33.5 82t-81 84.5t-95 91t-81 119.5t-33.5 152q0 193 132 329t323 136q98 0 192 -37t154 -103l-162 -231q-34 45 -83.5 70.5t-104.5 25.5q-56 0 -88.5 -38t-32.5 -91q0 -41 33 -84t79.5 -85 t93 -90.5t79.5 -119.5t33 -153q0 -96 -33.5 -183t-92 -152t-144.5 -104t-185 -39q-122 0 -227 45.5t-162 118.5z" />
<glyph unicode="T" horiz-adv-x="788" d="M129 0l242 1096h-203l59 270h715l-59 -270h-203l-240 -1096h-311z" />
<glyph unicode="U" horiz-adv-x="1040" d="M70 344q0 36 10 84l207 938h309l-213 -967q-6 -36 -6 -51q0 -47 28.5 -74.5t73.5 -27.5q51 0 83 35.5t50 117.5l213 967h312l-211 -948q-49 -222 -175 -332.5t-296 -110.5q-164 0 -274.5 102t-110.5 267z" />
<glyph unicode="V" horiz-adv-x="929" d="M176 0l8 1366h312l-62 -971l365 971h327l-594 -1366h-356z" />
<glyph unicode="W" horiz-adv-x="1331" d="M147 0l60 1366h309l-86 -827l301 827h240l-62 -827l279 827h319l-544 -1366h-310l78 795l-274 -795h-310z" />
<glyph unicode="X" horiz-adv-x="970" d="M-119 0l477 713l-159 653h327l54 -393l215 393h356l-453 -682l170 -684h-325l-70 416l-235 -416h-357z" />
<glyph unicode="Y" horiz-adv-x="942" d="M178 1366h316l41 -514l270 514h338l-506 -807l-121 -559h-311l123 559z" />
<glyph unicode="Z" horiz-adv-x="806" d="M-53 0l55 260l498 836h-312l60 270h678l-54 -248l-507 -848h335l-61 -270h-692z" />
<glyph unicode="[" horiz-adv-x="442" d="M-123 -389l393 1778h332l-39 -183h-137l-311 -1413h135l-43 -182h-330z" />
<glyph unicode="\" horiz-adv-x="493" d="M180 -41v1448h193v-1448h-193z" />
<glyph unicode="]" horiz-adv-x="442" d="M-160 -389l39 182h135l316 1413h-137l40 183h334l-395 -1778h-332z" />
<glyph unicode="^" horiz-adv-x="698" d="M78 682l362 684h201l57 -684h-190l-12 463l-217 -463h-201z" />
<glyph unicode="_" horiz-adv-x="571" d="M-174 -264l41 182h582l-41 -182h-582z" />
<glyph unicode="`" horiz-adv-x="395" d="M207 1434h233l97 -295h-172z" />
<glyph unicode="a" d="M20 301q0 82 15.5 175.5t49 189.5t80 173t114.5 126t147 49q159 0 203 -144l28 119h275l-219 -989h-277l25 113q-89 -138 -211 -138q-113 0 -171.5 82t-58.5 244zM305 342q0 -60 23.5 -91.5t66.5 -31.5q31 0 61 26.5t50 65.5l80 365q-6 43 -31.5 68.5t-60.5 25.5 q-46 0 -84.5 -49t-60 -120t-33 -139.5t-11.5 -119.5z" />
<glyph unicode="b" d="M-27 0l299 1366h279l-109 -489q92 137 211 137q113 0 171.5 -82t58.5 -244q0 -104 -25.5 -223.5t-73 -231t-128 -185t-177.5 -73.5q-159 0 -205 146l-24 -121h-277zM317 313q7 -42 33 -68t60 -26q46 0 84 49t59 120t32 139.5t11 119.5q0 123 -90 123q-28 0 -57.5 -26.5 t-49.5 -65.5z" />
<glyph unicode="c" horiz-adv-x="733" d="M27 360q0 93 21 186.5t63.5 177.5t100 149t136.5 103t168 38q85 0 158.5 -28.5t116.5 -74.5l-127 -206q-40 65 -123 65q-65 0 -119.5 -60t-82.5 -146t-28 -171q0 -86 39.5 -130t106.5 -44q65 0 116 51l39 -219q-92 -76 -223 -76q-168 0 -265 100t-97 285z" />
<glyph unicode="d" d="M20 301q0 82 15.5 175.5t49 189.5t80 173t114.5 126t147 49q159 0 203 -144l110 496h275l-301 -1366h-277l25 113q-89 -138 -211 -138q-113 0 -171.5 82t-58.5 244zM305 342q0 -60 23.5 -91.5t66.5 -31.5q31 0 61 26.5t50 65.5l80 365q-6 43 -31.5 68.5t-60.5 25.5 q-46 0 -84.5 -49t-60 -120t-33 -139.5t-11.5 -119.5z" />
<glyph unicode="e" horiz-adv-x="860" d="M27 365q0 81 19 169t59.5 173.5t96 154t135.5 110.5t171 42q167 0 247.5 -94.5t80.5 -257.5q0 -106 -39 -259h-512q-4 -20 -4 -59q0 -24 7.5 -47t24 -46.5t51 -37.5t82.5 -14q84 0 168 73l91 -172q-61 -59 -145 -92t-169 -33q-172 0 -268 103t-96 287zM324 594h256 q8 36 8 76q0 55 -29 88t-74 33q-47 0 -83 -33.5t-53 -75t-25 -88.5z" />
<glyph unicode="f" horiz-adv-x="536" d="M6 0l166 748h-90l55 241h88l15 70q12 57 28 103t42.5 89t61 71.5t84 46t109.5 17.5q66 0 125.5 -17.5t87.5 -43.5l-106 -205q-28 31 -62 31q-77 0 -94 -92l-14 -70h121l-56 -241h-118l-166 -748h-277z" />
<glyph unicode="g" d="M-78 -270l137 204q34 -46 87 -73t112 -27q70 0 115 49.5t71 157.5l29 119q-43 -70 -98.5 -106t-114.5 -36q-114 0 -173.5 79.5t-59.5 230.5q0 79 13 167t44 181.5t75 167.5t113 122t152 48q66 0 128.5 -37.5t76.5 -106.5l26 119h277l-211 -940q-28 -129 -74 -219 t-106.5 -139.5t-127 -70.5t-147.5 -21q-111 0 -200.5 34t-143.5 97zM311 387q0 -65 23 -93t69 -28q29 0 59.5 25.5t51.5 64.5l72 320q-11 40 -38 67t-59 27q-45 0 -81.5 -42.5t-56.5 -106t-30 -124.5t-10 -110z" />
<glyph unicode="h" horiz-adv-x="903" d="M-29 0l301 1366h279l-111 -498q46 61 113.5 103.5t140.5 42.5q91 0 143 -48.5t52 -125.5q0 -18 -8 -58l-170 -782h-279l150 676q6 12 6 35q0 28 -15 43.5t-41 15.5q-67 0 -139 -115l-143 -655h-279z" />
<glyph unicode="i" horiz-adv-x="442" d="M-29 0l219 989h279l-219 -989h-279zM219 1229q0 85 59 136.5t128 51.5q63 0 105 -41t42 -100q0 -84 -58.5 -135t-127.5 -51q-64 0 -106 40.5t-42 98.5z" />
<glyph unicode="j" horiz-adv-x="442" d="M-272 -350l98 207q13 -23 47 -23q61 0 86 111l231 1044h279l-233 -1044q-39 -178 -116 -262t-231 -84q-113 0 -161 51zM219 1229q0 85 59 136.5t128 51.5q63 0 105 -41t42 -100q0 -84 -58.5 -135t-127.5 -51q-64 0 -106 40.5t-42 98.5z" />
<glyph unicode="k" horiz-adv-x="868" d="M-29 0l301 1366h279l-170 -774l270 397h312l-326 -438l121 -551h-299l-47 373l-115 -154l-47 -219h-279z" />
<glyph unicode="l" horiz-adv-x="442" d="M-29 0l301 1366h279l-301 -1366h-279z" />
<glyph unicode="m" horiz-adv-x="1363" d="M-29 0l219 989h279l-29 -121q45 63 114 104.5t140 41.5q85 0 140 -45t55 -107q0 -4 -2 -12q46 70 120 117t148 47q88 0 141.5 -46.5t53.5 -127.5q0 -26 -9 -58l-172 -782h-276l149 676q0 1 2 7t3.5 14.5t1.5 13.5q0 27 -14.5 43t-41.5 16q-39 0 -76 -34.5t-63 -80.5 l-143 -655h-279l150 676q6 12 6 35q0 28 -15 43.5t-41 15.5q-38 0 -75 -34.5t-64 -80.5l-143 -655h-279z" />
<glyph unicode="n" horiz-adv-x="903" d="M-29 0l219 989h279l-29 -121q46 61 113.5 103.5t140.5 42.5q91 0 143 -48t52 -126q0 -34 -8 -58l-170 -782h-279l150 676q6 18 6 35q0 28 -15 43.5t-41 15.5q-67 0 -139 -115l-143 -655h-279z" />
<glyph unicode="o" horiz-adv-x="888" d="M27 358q0 87 19.5 178t60.5 177t96.5 153t134.5 107.5t168 40.5q173 0 263.5 -102t90.5 -281q0 -87 -20 -177.5t-61 -176.5t-97 -153t-135.5 -108t-169.5 -41q-170 0 -260 102.5t-90 280.5zM305 352q0 -133 88 -133q44 0 81.5 49t59.5 118.5t34 137t12 113.5 q0 133 -88 133q-44 0 -81.5 -49t-59.5 -119t-34 -137t-12 -113z" />
<glyph unicode="p" d="M-111 -377l301 1366h279l-27 -112q92 137 211 137q113 0 171.5 -82t58.5 -244q0 -104 -25.5 -223.5t-73 -231t-128 -185t-177.5 -73.5q-159 0 -205 146l-108 -498h-277zM317 313q7 -42 33 -68t60 -26q46 0 84 49t59 120t32 139.5t11 119.5q0 123 -90 123 q-28 0 -57.5 -26.5t-49.5 -65.5z" />
<glyph unicode="q" d="M20 301q0 82 15.5 175.5t49 189.5t80 173t114.5 126t147 49q159 0 203 -144l26 119h275l-301 -1366h-277l109 490q-89 -138 -211 -138q-113 0 -171.5 82t-58.5 244zM305 342q0 -60 23.5 -91.5t66.5 -31.5q31 0 61 26.5t50 65.5l80 365q-6 43 -31.5 68.5t-60.5 25.5 q-46 0 -84.5 -49t-60 -120t-33 -139.5t-11.5 -119.5z" />
<glyph unicode="r" horiz-adv-x="604" d="M-29 0l219 989h279l-27 -121q39 66 105.5 106t146.5 40l-63 -273q-23 13 -58 13q-102 0 -184 -113l-139 -641h-279z" />
<glyph unicode="s" horiz-adv-x="745" d="M-57 127l147 178q34 -47 88.5 -79.5t116.5 -32.5q48 0 78 26t30 64q0 25 -23 49t-58 43t-75.5 46.5t-75.5 58t-58 79.5t-23 109q0 144 96 245t267 101q92 0 180 -37.5t147 -104.5l-141 -174q-24 35 -78 67t-110 32q-43 0 -69 -21.5t-26 -58.5q0 -25 33.5 -50.5t81 -52.5 t95 -61.5t81 -91.5t33.5 -129q0 -145 -106 -251t-279 -106q-115 0 -213.5 45t-138.5 107z" />
<glyph unicode="t" horiz-adv-x="552" d="M49 168q0 47 12 94l111 486h-90l53 241h90l60 271h276l-59 -271h121l-56 -241h-118l-97 -433q-6 -21 -6 -45q0 -51 51 -51q20 0 43 14l-2 -229q-49 -29 -129 -29q-127 0 -193.5 48.5t-66.5 144.5z" />
<glyph unicode="u" horiz-adv-x="903" d="M12 150q0 33 8 57l170 782h279l-150 -670q-6 -27 -6 -45q0 -25 15 -40t41 -15q38 0 74 32.5t63 78.5l145 659h279l-219 -989h-279l29 121q-48 -62 -114.5 -104t-139.5 -42q-91 0 -143 48.5t-52 126.5z" />
<glyph unicode="v" horiz-adv-x="835" d="M104 989h285l-14 -641l274 641h299l-493 -989h-295z" />
<glyph unicode="w" horiz-adv-x="1312" d="M111 989h278l-24 -616l253 616h261l-9 -616l254 616h295l-452 -989h-291l4 612l-264 -612h-291z" />
<glyph unicode="x" horiz-adv-x="808" d="M-113 0l342 498l-112 491h282l41 -289l168 289h299l-334 -491l127 -498h-288l-45 295l-179 -295h-301z" />
<glyph unicode="y" horiz-adv-x="835" d="M-104 -373l90 228q13 -13 47 -13q45 0 80 62l45 86l-54 999h285l-14 -639l274 639h299l-571 -1143q-74 -143 -144 -195t-174 -52q-97 0 -163 28z" />
<glyph unicode="z" horiz-adv-x="720" d="M-63 0l43 207l399 541h-279l56 241h618l-45 -196l-401 -551h286l-51 -242h-626z" />
<glyph unicode="{" horiz-adv-x="466" d="M-35 -184q0 25 8 53l93 420q4 20 4 35q0 45 -22 72.5t-58 27.5l35 151q105 0 135 138l92 420q29 125 111 190.5t210 65.5h56l-39 -183h-55q-31 0 -54 -19t-30 -54l-103 -469q-16 -76 -45.5 -120.5t-87.5 -66.5q59 -29 59 -112q0 -37 -8 -70l-90 -410q-6 -36 -6 -37 q0 -26 14 -41.5t35 -15.5h55l-41 -180h-36q-89 0 -160 58t-72 147z" />
<glyph unicode="|" horiz-adv-x="372" d="M137 -41v1448h182v-1448h-182z" />
<glyph unicode="}" horiz-adv-x="466" d="M-164 -389l41 182h55q30 0 52.5 19.5t29.5 54.5l105 469q16 76 45.5 120t87.5 66q-59 29 -59 113q0 37 8 70l90 409q6 36 6 37q0 25 -14.5 41t-34.5 16h-58l41 181h37q91 0 161.5 -58t70.5 -147q0 -33 -6 -54l-93 -417q-6 -30 -6 -39q0 -44 22 -71.5t60 -27.5l-35 -151 q-107 0 -137 -135l-92 -422q-28 -125 -110.5 -190.5t-211.5 -65.5h-55z" />
<glyph unicode="~" horiz-adv-x="874" d="M129 854q13 69 29 131t46 135t66 124.5t90.5 86.5t118.5 35q70 0 108.5 -37t47 -89.5t9 -105t6.5 -89.5t28 -37q73 0 147 358l183 -14q-12 -70 -27.5 -131.5t-44.5 -134t-65 -124t-90.5 -86t-118.5 -34.5q-59 0 -96 26.5t-49 66t-17.5 85.5t-4 85.5t-6 66t-26.5 26.5 q-72 0 -150 -358z" />
<glyph unicode="&#xa1;" horiz-adv-x="530" d="M-94 -377l248 912h243l-157 -912h-334zM170 825q0 76 56.5 132.5t133.5 56.5q67 0 112.5 -46.5t45.5 -113.5q0 -76 -56 -132t-132 -56q-66 0 -113 46.5t-47 112.5z" />
<glyph unicode="&#xa2;" horiz-adv-x="733" d="M27 360q0 144 48.5 281.5t145 239t221.5 125.5l35 151h201l-37 -162q93 -24 150 -84l-127 -206q-40 65 -123 65q-65 0 -119.5 -60t-82.5 -146t-28 -171q0 -86 39.5 -130t106.5 -44q65 0 116 51l39 -219q-78 -67 -198 -76l-39 -180h-201l47 211q-93 40 -143.5 130.5 t-50.5 223.5z" />
<glyph unicode="&#xa3;" horiz-adv-x="915" d="M23 195q97 57 157 151.5t60 198.5q0 18 -2 26h-162l39 174h88q-19 82 -19 152q0 107 42.5 200.5t110.5 155.5t151.5 97.5t166.5 35.5q150 0 251 -81.5t104 -233.5l-267 -74q-3 70 -22.5 105t-61.5 35q-59 0 -102 -86.5t-43 -198.5q0 -49 14 -107h142l-39 -174h-101 q-15 -94 -58.5 -170.5t-106.5 -119.5q41 16 71 16q46 0 107 -23.5t98 -23.5q78 0 137 55l23 -250q-87 -80 -217 -80q-70 0 -131 21.5t-113 43t-100 21.5q-77 0 -179 -75z" />
<glyph unicode="&#xa4;" horiz-adv-x="954" d="M-33 289l160 131q-25 70 -25 155q0 118 36.5 227.5t103.5 192.5l-109 140l184 147l113 -147q64 24 141 24q111 0 185 -41l174 142l143 -181l-166 -133q27 -73 27 -162q0 -116 -35.5 -224t-101.5 -189l106 -140l-184 -149l-113 145q-68 -24 -143 -24q-109 0 -189 41 l-168 -135zM367 586q0 -146 110 -146q76 0 133.5 99t57.5 233q0 70 -28 111t-83 41q-75 0 -132.5 -102.5t-57.5 -235.5z" />
<glyph unicode="&#xa5;" horiz-adv-x="942" d="M-8 233l39 168h262l35 158h-262l38 168h193l-119 639h316l41 -514l270 514h338l-402 -639h193l-39 -168h-258l-35 -158h258l-39 -168h-256l-49 -233h-311l51 233h-264z" />
<glyph unicode="&#xa6;" horiz-adv-x="372" d="M137 -41v647h182v-647h-182zM137 760v647h182v-647h-182z" />
<glyph unicode="&#xa7;" horiz-adv-x="747" d="M-100 -27l149 177q30 -51 82.5 -81t116.5 -30q55 0 89 35.5t34 83.5q0 32 -23 59.5t-57 47t-74 46.5t-74 56t-57 78t-23 110q0 101 60.5 180.5t161.5 110.5q-50 35 -79.5 92t-29.5 117q0 141 103 236t247 95q235 0 351 -139l-146 -151q-68 96 -184 96q-47 0 -77 -31.5 t-30 -73.5q0 -30 23.5 -58t58 -49t75.5 -49.5t75.5 -57.5t58 -74.5t23.5 -100.5q0 -101 -53 -181.5t-156 -129.5q47 -34 71.5 -85.5t24.5 -106.5q0 -151 -107.5 -256t-267.5 -105q-125 0 -222.5 35.5t-143.5 103.5zM319 610q0 -86 84 -127q95 45 95 148q0 74 -60 119 q-119 -26 -119 -140z" />
<glyph unicode="&#xa8;" horiz-adv-x="581" d="M135 1237q0 64 49.5 113t112.5 49q55 0 92 -36.5t37 -92.5q0 -64 -49.5 -113t-114.5 -49q-55 0 -91 36.5t-36 92.5zM489 1237q0 64 49.5 113t114.5 49q55 0 92 -36.5t37 -92.5q0 -64 -50 -113t-114 -49q-56 0 -92.5 37t-36.5 92z" />
<glyph unicode="&#xa9;" horiz-adv-x="1593" d="M131 684q0 191 94.5 354t257 258t353.5 95q143 0 274 -56t226 -151t151.5 -226t56.5 -274t-56.5 -274t-151.5 -226t-226 -151t-274 -56q-191 0 -353.5 95t-257 258t-94.5 354zM209 684q0 -169 84.5 -314t229 -230t313.5 -85t314.5 85t230.5 230t85 314t-85 314 t-230.5 230t-314.5 85t-313.5 -85t-229 -230t-84.5 -314zM414 629q0 102 40 193.5t105.5 155t152.5 101t179 37.5q106 0 191 -42t135 -124l-80 -55q-75 137 -252 137q-68 0 -135.5 -30.5t-120.5 -82t-86 -127t-33 -159.5q0 -124 81 -210.5t216 -86.5q63 0 124 28t107 72 l52 -71q-133 -113 -285 -113q-177 0 -284 106.5t-107 270.5z" />
<glyph unicode="&#xaa;" horiz-adv-x="663" d="M133 881q0 72 19.5 149.5t54 144t89 109.5t116.5 43q47 0 85.5 -22.5t59.5 -67.5l16 74h199l-141 -643h-199l17 73q-64 -90 -150 -90q-75 0 -120.5 56.5t-45.5 173.5zM336 899q0 -42 16.5 -66t46.5 -24q40 0 78 65l53 238q-8 26 -24.5 41.5t-38.5 15.5q-54 0 -92.5 -90.5 t-38.5 -179.5z" />
<glyph unicode="&#xab;" horiz-adv-x="851" d="M59 498l267 362h213l-273 -371l101 -360h-205zM393 498l266 362h215l-272 -371l100 -360h-206z" />
<glyph unicode="&#xac;" horiz-adv-x="790" d="M123 793l37 168h671l-122 -553h-174l83 385h-495z" />
<glyph unicode="&#xad;" horiz-adv-x="499" d="M35 379l51 233h377l-51 -233h-377z" />
<glyph unicode="&#xae;" horiz-adv-x="1011" d="M172 952q0 181 127 307.5t307 126.5q119 0 219 -57.5t157.5 -157.5t57.5 -219q0 -180 -127.5 -307t-308.5 -127q-180 0 -306 127t-126 307zM240 952q0 -153 105.5 -259.5t258.5 -106.5q154 0 261.5 107t107.5 259q0 155 -107.5 261t-261.5 106t-259 -106t-105 -261z M383 702l109 498h192q65 0 105 -36.5t40 -94.5q0 -72 -50.5 -120t-112.5 -48l90 -199h-84l-86 197h-88l-43 -197h-72zM512 963h131q45 0 78 28.5t33 71.5q0 36 -23 56t-63 20h-117z" />
<glyph unicode="&#xaf;" horiz-adv-x="538" d="M145 1147l33 156h537l-33 -156h-537z" />
<glyph unicode="&#xb0;" horiz-adv-x="643" d="M174 1106q0 116 82 198t199 82t198.5 -82t81.5 -198q0 -117 -81.5 -199t-198.5 -82t-199 82t-82 199zM324 1106q0 -56 37 -94.5t92 -38.5q56 0 95.5 39t39.5 94q0 54 -39 93.5t-94 39.5t-93 -39t-38 -94z" />
<glyph unicode="&#xb1;" horiz-adv-x="790" d="M-43 37l37 170h670l-37 -170h-670zM82 606l39 168h241l62 277h184l-59 -277h242l-37 -168h-242l-66 -291h-186l64 291h-242z" />
<glyph unicode="&#xb2;" horiz-adv-x="630" d="M133 862l37 162q270 208 350 287.5t80 140.5q0 37 -23.5 57.5t-64.5 20.5q-84 0 -162 -90l-94 135q119 119 272 119q122 0 202.5 -58t80.5 -161q0 -32 -9 -63t-21.5 -57.5t-41 -59.5t-53 -57.5t-72.5 -64.5t-83.5 -68t-102.5 -79h291l-37 -164h-549z" />
<glyph unicode="&#xb3;" horiz-adv-x="630" d="M143 989l150 121q47 -98 137 -98q47 0 74.5 35t27.5 77q0 37 -24.5 55.5t-63.5 18.5q-47 0 -61 -2l35 162q10 -2 69 -2q52 0 81.5 28t29.5 74q0 33 -25 52.5t-65 19.5q-84 0 -148 -76l-102 119q115 121 268 121q125 0 202 -54t77 -149q0 -77 -53 -144t-144 -75 q63 -19 93 -64.5t30 -103.5q0 -99 -81.5 -177.5t-209.5 -78.5q-100 0 -179.5 37t-117.5 104z" />
<glyph unicode="&#xb4;" horiz-adv-x="395" d="M137 1139l230 295h235l-289 -295h-176z" />
<glyph unicode="&#xb5;" horiz-adv-x="931" d="M-111 -377l301 1366h279l-152 -680q-8 -42 5.5 -66t46.5 -24q69 0 137 109l145 661h279l-156 -702q-14 -68 33 -68q15 0 31 4l-31 -229q-55 -19 -129 -19q-103 0 -141.5 41.5t-36.5 137.5q-29 -84 -79.5 -131.5t-98.5 -47.5q-42 0 -72 27l-82 -379h-279z" />
<glyph unicode="&#xb6;" horiz-adv-x="919" d="M162 981q0 97 50.5 185t143 144t203.5 56h463l-348 -1571h-133l321 1438h-160l-319 -1438h-133l192 867q-116 0 -198 91t-82 228z" />
<glyph unicode="&#xb7;" horiz-adv-x="530" d="M92 485q0 77 56.5 134t132.5 57q66 0 111.5 -48t45.5 -114q0 -77 -56 -132.5t-134 -55.5q-66 0 -111 46.5t-45 112.5z" />
<glyph unicode="&#xb8;" horiz-adv-x="391" d="M-180 -319l67 98q52 -66 129 -66q36 0 57 21t21 51q0 41 -39 41q-27 0 -47 -27l-86 56l98 168h136l-82 -127q23 20 47 20q48 0 79 -34t31 -91q0 -83 -61 -137.5t-152 -54.5q-122 0 -198 82z" />
<glyph unicode="&#xb9;" horiz-adv-x="530" d="M217 1425l315 256h179l-181 -819h-208l118 547l-129 -109z" />
<glyph unicode="&#xba;" horiz-adv-x="651" d="M139 907q0 101 38.5 195.5t117.5 159.5t180 65q121 0 187.5 -71t66.5 -185q0 -101 -38.5 -195.5t-117.5 -159.5t-180 -65q-122 0 -188 71t-66 185zM338 897q0 -86 63 -86q31 0 56.5 33t39.5 79t21.5 88.5t7.5 69.5q0 84 -63 84q-31 0 -56.5 -32.5t-39.5 -79t-21.5 -88.5 t-7.5 -68z" />
<glyph unicode="&#xbb;" horiz-adv-x="851" d="M-23 129l273 371l-100 360h204l103 -368l-267 -363h-213zM311 129l273 371l-101 360h207l103 -368l-267 -363h-215z" />
<glyph unicode="&#xbc;" horiz-adv-x="1400" d="M147 1110l316 256h178l-180 -819h-209l119 547l-129 -109zM246 0l878 1366h115l-881 -1366h-112zM719 170l37 160l374 489h250l-106 -485h65l-34 -164h-68l-37 -170h-207l37 170h-311zM930 334h135l57 256z" />
<glyph unicode="&#xbd;" horiz-adv-x="1476" d="M147 1110l316 256h178l-180 -819h-209l119 547l-129 -109zM246 0l878 1366h115l-881 -1366h-112zM791 0l36 162q270 208 350 287.5t80 140.5q0 37 -23.5 57.5t-64.5 20.5q-83 0 -161 -90l-95 135q118 118 273 118q122 0 202 -58t80 -161q0 -32 -9 -63t-21.5 -57 t-41.5 -59.5t-52.5 -57.5t-72.5 -64.5t-83.5 -67.5t-102.5 -79h291l-37 -164h-548z" />
<glyph unicode="&#xbe;" horiz-adv-x="1474" d="M74 674l149 121q22 -46 57.5 -72.5t79.5 -26.5q47 0 75 35.5t28 77.5q0 37 -24.5 55.5t-63.5 18.5q-48 0 -62 -2l35 161q10 -2 70 -2q52 0 81 28t29 75q0 33 -25 52t-65 19q-84 0 -147 -75l-103 118q115 121 269 121q125 0 201.5 -53.5t76.5 -148.5q0 -49 -21.5 -96 t-67.5 -82.5t-107 -41.5q63 -19 93 -64.5t30 -103.5q0 -99 -81.5 -177.5t-209.5 -78.5q-99 0 -179 37.5t-118 104.5zM319 0l879 1366h115l-881 -1366h-113zM793 170l36 160l375 489h250l-106 -485h65l-35 -164h-67l-37 -170h-207l37 170h-311zM1004 334h135l57 256z" />
<glyph unicode="&#xbf;" horiz-adv-x="606" d="M-117 -145q0 68 25.5 129.5t64 105.5t83.5 88t83.5 79t64 77.5t25.5 83.5t-12 65l250 78q16 -50 16 -121q0 -80 -28.5 -146.5t-69 -111t-81 -82.5t-69 -78t-28.5 -81q0 -35 20.5 -57.5t57.5 -22.5q59 0 102 43l84 -199q-126 -104 -287 -104q-128 0 -214.5 71.5 t-86.5 182.5zM236 825q0 75 57 131t135 56q64 0 110 -47t46 -113q0 -76 -57 -132t-132 -56q-67 0 -113 46.5t-46 114.5z" />
<glyph unicode="&#xc0;" horiz-adv-x="929" d="M-117 0l594 1366h357l-9 -1366h-311l14 221h-237l-82 -221h-326zM389 492h164l35 534zM449 1776h233l96 -295h-172z" />
<glyph unicode="&#xc1;" horiz-adv-x="929" d="M-117 0l594 1366h357l-9 -1366h-311l14 221h-237l-82 -221h-326zM389 492h164l35 534zM578 1481l229 295h235l-288 -295h-176z" />
<glyph unicode="&#xc2;" horiz-adv-x="929" d="M-117 0l594 1366h357l-9 -1366h-311l14 221h-237l-82 -221h-326zM389 492h164l35 534zM430 1481l191 295h245l66 -295h-146l-65 176l-135 -176h-156z" />
<glyph unicode="&#xc3;" horiz-adv-x="929" d="M-117 0l594 1366h357l-9 -1366h-311l14 221h-237l-82 -221h-326zM389 492h164l35 534zM408 1489q63 274 225 274q34 0 58 -13.5t36.5 -32.5t22.5 -38.5t23.5 -33t33.5 -13.5q44 0 70 119h143q-27 -127 -84.5 -200.5t-142.5 -73.5q-42 0 -69 20.5t-37 45t-26.5 45 t-39.5 20.5q-44 0 -70 -119h-143z" />
<glyph unicode="&#xc4;" horiz-adv-x="929" d="M-117 0l594 1366h357l-9 -1366h-311l14 221h-237l-82 -221h-326zM383 1579q0 64 49.5 113t112.5 49q55 0 92 -36.5t37 -92.5q0 -64 -49.5 -113t-114.5 -49q-55 0 -91 36.5t-36 92.5zM389 492h164l35 534zM737 1579q0 64 49.5 113t114.5 49q55 0 92 -36.5t37 -92.5 q0 -64 -50 -113t-114 -49q-56 0 -92.5 37t-36.5 92z" />
<glyph unicode="&#xc5;" horiz-adv-x="929" d="M-117 0l594 1366h357l-9 -1366h-311l14 221h-237l-82 -221h-326zM389 492h164l35 534zM520 1581q0 85 62.5 149t146.5 64q73 0 120.5 -48t47.5 -122q0 -85 -63 -148t-148 -63q-73 0 -119.5 47.5t-46.5 120.5zM637 1595q0 -29 18 -47t47 -18q31 0 55.5 24.5t24.5 57.5 q0 29 -17 47t-46 18q-33 0 -57.5 -24.5t-24.5 -57.5z" />
<glyph unicode="&#xc6;" horiz-adv-x="1296" d="M-109 0l768 1366h777l-60 -270h-332l-59 -267h320l-62 -270h-317l-64 -289h332l-59 -270h-641l47 221h-213l-113 -221h-324zM461 492h139l113 503z" />
<glyph unicode="&#xc7;" horiz-adv-x="917" d="M53 432q0 72 10 155t33 176t56 181.5t83 169.5t110 142t141.5 97t172.5 36q79 0 141.5 -25.5t103 -66.5t67.5 -98t39 -115.5t14 -122.5l-287 -56q-7 209 -96 209q-60 0 -114.5 -80.5t-87.5 -194t-52.5 -226t-19.5 -187.5q0 -176 92 -176q83 0 162 164l247 -101 q-74 -166 -176.5 -252t-247.5 -86l-51 -79q23 20 47 20q48 0 79.5 -34t31.5 -91q0 -83 -61 -137.5t-152 -54.5q-123 0 -199 82l68 98q52 -66 129 -66q36 0 57 21t21 51q0 41 -39 41q-27 0 -47 -27l-86 56l80 137q-131 35 -200 150t-69 290z" />
<glyph unicode="&#xc8;" horiz-adv-x="802" d="M-14 0l301 1366h643l-62 -270h-331l-58 -267h318l-60 -270h-319l-64 -289h334l-59 -270h-643zM401 1776h234l96 -295h-172z" />
<glyph unicode="&#xc9;" horiz-adv-x="802" d="M-14 0l301 1366h643l-62 -270h-331l-58 -267h318l-60 -270h-319l-64 -289h334l-59 -270h-643zM532 1481l230 295h235l-288 -295h-177z" />
<glyph unicode="&#xca;" horiz-adv-x="802" d="M-14 0l301 1366h643l-62 -270h-331l-58 -267h318l-60 -270h-319l-64 -289h334l-59 -270h-643zM383 1481l190 295h246l66 -295h-146l-65 176l-135 -176h-156z" />
<glyph unicode="&#xcb;" horiz-adv-x="802" d="M-14 0l301 1366h643l-62 -270h-331l-58 -267h318l-60 -270h-319l-64 -289h334l-59 -270h-643zM334 1579q0 64 49.5 113t112.5 49q56 0 92.5 -36.5t36.5 -92.5q0 -64 -49.5 -113t-114.5 -49q-55 0 -91 36.5t-36 92.5zM688 1579q0 64 49.5 113t114.5 49q56 0 92.5 -36.5 t36.5 -92.5q0 -64 -50 -113t-114 -49q-55 0 -92 37t-37 92z" />
<glyph unicode="&#xcc;" horiz-adv-x="501" d="M-14 0l301 1366h309l-301 -1366h-309zM233 1776h234l96 -295h-172z" />
<glyph unicode="&#xcd;" horiz-adv-x="501" d="M-14 0l301 1366h309l-301 -1366h-309zM365 1481l229 295h235l-288 -295h-176z" />
<glyph unicode="&#xce;" horiz-adv-x="501" d="M-14 0l301 1366h309l-301 -1366h-309zM217 1481l191 295h245l66 -295h-146l-65 176l-135 -176h-156z" />
<glyph unicode="&#xcf;" horiz-adv-x="501" d="M-14 0l301 1366h309l-301 -1366h-309zM170 1579q0 64 49.5 113t112.5 49q56 0 92.5 -36.5t36.5 -92.5q0 -64 -49.5 -113t-114.5 -49q-55 0 -91 36.5t-36 92.5zM524 1579q0 64 49.5 113t114.5 49q56 0 92.5 -36.5t36.5 -92.5q0 -64 -50 -113t-114 -49q-55 0 -92 37t-37 92 z" />
<glyph unicode="&#xd0;" horiz-adv-x="1073" d="M35 0l123 559h-117l53 248h117l125 559h371q74 0 141.5 -30t120.5 -86.5t84.5 -146t31.5 -200.5q0 -68 -9.5 -144t-32 -164.5t-57 -171.5t-88 -161t-120.5 -135.5t-160 -92t-200 -34.5h-383zM403 270h68q61 0 113 50t85.5 124t57 162.5t33.5 163.5t10 129q0 98 -34 147.5 t-85 49.5h-65l-64 -289h129l-55 -248h-129z" />
<glyph unicode="&#xd1;" horiz-adv-x="1040" d="M-14 0l301 1366h309l90 -631l139 631h310l-301 -1366h-289l-105 664l-145 -664h-309zM463 1489q63 274 225 274q34 0 58 -13.5t36.5 -32.5t22.5 -38.5t23.5 -33t33.5 -13.5q44 0 70 119h143q-27 -127 -84.5 -200.5t-142.5 -73.5q-42 0 -69 20.5t-37 45t-26.5 45 t-39.5 20.5q-44 0 -70 -119h-143z" />
<glyph unicode="&#xd2;" horiz-adv-x="1024" d="M53 432q0 72 10.5 155.5t33.5 176.5t57 181.5t84 169.5t110 141.5t140.5 96.5t170.5 36q129 0 219 -63t131.5 -165t41.5 -233q0 -72 -10.5 -155.5t-34 -176t-57.5 -180.5t-84 -168.5t-110.5 -140.5t-140.5 -96t-170 -36q-192 0 -291.5 127t-99.5 330zM367 426 q0 -176 92 -176q60 0 114.5 79.5t88 192t53.5 224.5t20 188q0 180 -94 180q-60 0 -114 -79.5t-87.5 -193t-53 -226t-19.5 -189.5zM496 1776h233l96 -295h-172z" />
<glyph unicode="&#xd3;" horiz-adv-x="1024" d="M53 432q0 72 10.5 155.5t33.5 176.5t57 181.5t84 169.5t110 141.5t140.5 96.5t170.5 36q129 0 219 -63t131.5 -165t41.5 -233q0 -72 -10.5 -155.5t-34 -176t-57.5 -180.5t-84 -168.5t-110.5 -140.5t-140.5 -96t-170 -36q-192 0 -291.5 127t-99.5 330zM367 426 q0 -176 92 -176q60 0 114.5 79.5t88 192t53.5 224.5t20 188q0 180 -94 180q-60 0 -114 -79.5t-87.5 -193t-53 -226t-19.5 -189.5zM627 1481l229 295h236l-289 -295h-176z" />
<glyph unicode="&#xd4;" horiz-adv-x="1024" d="M53 432q0 72 10.5 155.5t33.5 176.5t57 181.5t84 169.5t110 141.5t140.5 96.5t170.5 36q129 0 219 -63t131.5 -165t41.5 -233q0 -72 -10.5 -155.5t-34 -176t-57.5 -180.5t-84 -168.5t-110.5 -140.5t-140.5 -96t-170 -36q-192 0 -291.5 127t-99.5 330zM367 426 q0 -176 92 -176q60 0 114.5 79.5t88 192t53.5 224.5t20 188q0 180 -94 180q-60 0 -114 -79.5t-87.5 -193t-53 -226t-19.5 -189.5zM479 1481l191 295h245l66 -295h-145l-66 176l-135 -176h-156z" />
<glyph unicode="&#xd5;" horiz-adv-x="1024" d="M53 432q0 72 10.5 155.5t33.5 176.5t57 181.5t84 169.5t110 141.5t140.5 96.5t170.5 36q129 0 219 -63t131.5 -165t41.5 -233q0 -72 -10.5 -155.5t-34 -176t-57.5 -180.5t-84 -168.5t-110.5 -140.5t-140.5 -96t-170 -36q-192 0 -291.5 127t-99.5 330zM367 426 q0 -176 92 -176q60 0 114.5 79.5t88 192t53.5 224.5t20 188q0 180 -94 180q-60 0 -114 -79.5t-87.5 -193t-53 -226t-19.5 -189.5zM455 1489q63 274 225 274q34 0 58 -13.5t36.5 -32.5t22.5 -38.5t23.5 -33t33.5 -13.5q44 0 70 119h143q-27 -127 -84.5 -200.5t-142.5 -73.5 q-42 0 -69 20.5t-37 45t-26.5 45t-39.5 20.5q-44 0 -70 -119h-143z" />
<glyph unicode="&#xd6;" horiz-adv-x="1024" d="M53 432q0 72 10.5 155.5t33.5 176.5t57 181.5t84 169.5t110 141.5t140.5 96.5t170.5 36q129 0 219 -63t131.5 -165t41.5 -233q0 -72 -10.5 -155.5t-34 -176t-57.5 -180.5t-84 -168.5t-110.5 -140.5t-140.5 -96t-170 -36q-192 0 -291.5 127t-99.5 330zM367 426 q0 -176 92 -176q60 0 114.5 79.5t88 192t53.5 224.5t20 188q0 180 -94 180q-60 0 -114 -79.5t-87.5 -193t-53 -226t-19.5 -189.5zM430 1579q0 64 49.5 113t112.5 49q56 0 92.5 -36.5t36.5 -92.5q0 -64 -49.5 -113t-114.5 -49q-55 0 -91 36.5t-36 92.5zM784 1579 q0 64 49.5 113t114.5 49q56 0 92.5 -36.5t36.5 -92.5q0 -64 -50 -113t-114 -49q-55 0 -92 37t-37 92z" />
<glyph unicode="&#xd7;" horiz-adv-x="790" d="M66 492l251 202l-149 195l131 108l152 -192l249 205l103 -131l-248 -205l150 -195l-136 -108l-149 192l-250 -205z" />
<glyph unicode="&#xd8;" horiz-adv-x="1024" d="M-35 0l135 184q-47 103 -47 248q0 72 10.5 155.5t33.5 176.5t57 181.5t84 169.5t110 141.5t140.5 96.5t170.5 36q158 0 259 -95l51 72h172l-140 -190q50 -109 50 -248q0 -72 -10.5 -155.5t-34 -176t-57.5 -180.5t-84 -168.5t-110.5 -140.5t-140.5 -96t-170 -36 q-161 0 -258 91l-49 -66h-172zM377 326q19 -76 82 -76q49 0 94.5 53.5t79 138.5t57 176.5t35.5 180.5zM377 561l348 473q-23 80 -84 80q-49 0 -94.5 -53.5t-78.5 -139.5t-55.5 -177.5t-35.5 -182.5z" />
<glyph unicode="&#xd9;" horiz-adv-x="1040" d="M70 344q0 36 10 84l207 938h309l-213 -967q-6 -36 -6 -51q0 -47 28.5 -74.5t73.5 -27.5q51 0 83 35.5t50 117.5l213 967h312l-211 -948q-49 -222 -175 -332.5t-296 -110.5q-164 0 -274.5 102t-110.5 267zM504 1776h233l97 -295h-172z" />
<glyph unicode="&#xda;" horiz-adv-x="1040" d="M70 344q0 36 10 84l207 938h309l-213 -967q-6 -36 -6 -51q0 -47 28.5 -74.5t73.5 -27.5q51 0 83 35.5t50 117.5l213 967h312l-211 -948q-49 -222 -175 -332.5t-296 -110.5q-164 0 -274.5 102t-110.5 267zM635 1481l229 295h236l-289 -295h-176z" />
<glyph unicode="&#xdb;" horiz-adv-x="1040" d="M70 344q0 36 10 84l207 938h309l-213 -967q-6 -36 -6 -51q0 -47 28.5 -74.5t73.5 -27.5q51 0 83 35.5t50 117.5l213 967h312l-211 -948q-49 -222 -175 -332.5t-296 -110.5q-164 0 -274.5 102t-110.5 267zM489 1481l191 295h246l65 -295h-145l-66 176l-135 -176h-156z" />
<glyph unicode="&#xdc;" horiz-adv-x="1040" d="M70 344q0 36 10 84l207 938h309l-213 -967q-6 -36 -6 -51q0 -47 28.5 -74.5t73.5 -27.5q51 0 83 35.5t50 117.5l213 967h312l-211 -948q-49 -222 -175 -332.5t-296 -110.5q-164 0 -274.5 102t-110.5 267zM438 1579q0 64 49.5 113t112.5 49q56 0 92.5 -36.5t36.5 -92.5 q0 -64 -49.5 -113t-114.5 -49q-55 0 -91 36.5t-36 92.5zM793 1579q0 64 49 113t114 49q56 0 92.5 -36.5t36.5 -92.5q0 -64 -50 -113t-113 -49q-56 0 -92.5 37t-36.5 92z" />
<glyph unicode="&#xdd;" horiz-adv-x="942" d="M178 1366h316l41 -514l270 514h338l-506 -807l-121 -559h-311l123 559zM586 1481l229 295h236l-289 -295h-176z" />
<glyph unicode="&#xde;" horiz-adv-x="960" d="M-14 0l301 1366h309l-47 -217h72q154 0 254 -102t100 -263q0 -76 -18.5 -149.5t-60 -141.5t-101 -119t-148 -81.5t-194.5 -30.5h-101l-57 -262h-309zM414 532h61q76 0 126 65.5t50 154.5q0 60 -28 93.5t-74 33.5h-60z" />
<glyph unicode="&#xdf;" horiz-adv-x="1124" d="M-20 0l215 973q39 183 160 298t309 115q163 0 281 -88.5t118 -220.5q0 -59 -20.5 -108.5t-51.5 -80.5t-67.5 -59.5t-67.5 -48.5t-51.5 -43.5t-20.5 -46.5q0 -21 15.5 -39.5t39.5 -34t53.5 -32.5t59.5 -39.5t54 -50t39.5 -69t15.5 -91.5q0 -63 -25.5 -126t-70.5 -115.5 t-116 -85t-153 -32.5q-228 0 -340 144l136 180q72 -102 170 -102q40 0 69 26t29 66q0 28 -26.5 54t-64.5 51t-76 55.5t-64.5 79.5t-26.5 110q0 74 28 129t67.5 87t79 58.5t67.5 58.5t28 72q0 44 -36 71.5t-95 27.5q-64 0 -106.5 -40t-63.5 -130l-213 -973h-278z" />
<glyph unicode="&#xe0;" d="M20 301q0 82 15.5 175.5t49 189.5t80 173t114.5 126t147 49q159 0 203 -144l28 119h275l-219 -989h-277l25 113q-89 -138 -211 -138q-113 0 -171.5 82t-58.5 244zM305 342q0 -60 23.5 -91.5t66.5 -31.5q31 0 61 26.5t50 65.5l80 365q-6 43 -31.5 68.5t-60.5 25.5 q-46 0 -84.5 -49t-60 -120t-33 -139.5t-11.5 -119.5zM354 1434h234l96 -295h-172z" />
<glyph unicode="&#xe1;" d="M20 301q0 82 15.5 175.5t49 189.5t80 173t114.5 126t147 49q159 0 203 -144l28 119h275l-219 -989h-277l25 113q-89 -138 -211 -138q-113 0 -171.5 82t-58.5 244zM305 342q0 -60 23.5 -91.5t66.5 -31.5q31 0 61 26.5t50 65.5l80 365q-6 43 -31.5 68.5t-60.5 25.5 q-46 0 -84.5 -49t-60 -120t-33 -139.5t-11.5 -119.5zM485 1139l230 295h235l-288 -295h-177z" />
<glyph unicode="&#xe2;" d="M20 301q0 82 15.5 175.5t49 189.5t80 173t114.5 126t147 49q159 0 203 -144l28 119h275l-219 -989h-277l25 113q-89 -138 -211 -138q-113 0 -171.5 82t-58.5 244zM305 342q0 -60 23.5 -91.5t66.5 -31.5q31 0 61 26.5t50 65.5l80 365q-6 43 -31.5 68.5t-60.5 25.5 q-46 0 -84.5 -49t-60 -120t-33 -139.5t-11.5 -119.5zM336 1139l190 295h246l66 -295h-146l-65 176l-135 -176h-156z" />
<glyph unicode="&#xe3;" d="M20 301q0 82 15.5 175.5t49 189.5t80 173t114.5 126t147 49q159 0 203 -144l28 119h275l-219 -989h-277l25 113q-89 -138 -211 -138q-113 0 -171.5 82t-58.5 244zM305 342q0 -60 23.5 -91.5t66.5 -31.5q31 0 61 26.5t50 65.5l80 365q-6 43 -31.5 68.5t-60.5 25.5 q-46 0 -84.5 -49t-60 -120t-33 -139.5t-11.5 -119.5zM311 1147q63 274 226 274q34 0 58 -13.5t36.5 -32.5t22.5 -38.5t23.5 -33t33.5 -13.5q43 0 69 119h144q-27 -127 -85 -200.5t-143 -73.5q-42 0 -69 20.5t-37 45t-26.5 45t-39.5 20.5q-43 0 -69 -119h-144z" />
<glyph unicode="&#xe4;" d="M20 301q0 82 15.5 175.5t49 189.5t80 173t114.5 126t147 49q159 0 203 -144l28 119h275l-219 -989h-277l25 113q-89 -138 -211 -138q-113 0 -171.5 82t-58.5 244zM291 1237q0 64 49.5 113t112.5 49q55 0 92 -36.5t37 -92.5q0 -64 -49.5 -113t-114.5 -49q-55 0 -91 36.5 t-36 92.5zM305 342q0 -60 23.5 -91.5t66.5 -31.5q31 0 61 26.5t50 65.5l80 365q-6 43 -31.5 68.5t-60.5 25.5q-46 0 -84.5 -49t-60 -120t-33 -139.5t-11.5 -119.5zM645 1237q0 64 49.5 113t114.5 49q55 0 92 -36.5t37 -92.5q0 -64 -50 -113t-114 -49q-56 0 -92.5 37 t-36.5 92z" />
<glyph unicode="&#xe5;" d="M20 301q0 82 15.5 175.5t49 189.5t80 173t114.5 126t147 49q159 0 203 -144l28 119h275l-219 -989h-277l25 113q-89 -138 -211 -138q-113 0 -171.5 82t-58.5 244zM305 342q0 -60 23.5 -91.5t66.5 -31.5q31 0 61 26.5t50 65.5l80 365q-6 43 -31.5 68.5t-60.5 25.5 q-46 0 -84.5 -49t-60 -120t-33 -139.5t-11.5 -119.5zM428 1243q0 85 62.5 149t146.5 64q73 0 120.5 -48t47.5 -122q0 -85 -63 -148t-148 -63q-73 0 -119.5 47.5t-46.5 120.5zM545 1257q0 -29 18 -47t47 -18q31 0 55.5 24.5t24.5 57.5q0 29 -17 47t-46 18q-33 0 -57.5 -24.5 t-24.5 -57.5z" />
<glyph unicode="&#xe6;" horiz-adv-x="1378" d="M20 301q0 82 15.5 175.5t49 189.5t80 173t114.5 126t147 49q159 0 203 -144l28 119h275l-21 -96q38 50 93.5 86t117.5 35q119 -3 176.5 -83.5t57.5 -246.5q0 -142 -41 -281h-508q-6 -30 -6 -57q0 -54 41 -97.5t127 -43.5q83 0 166 76l88 -193q-107 -113 -250 -113 q-185 0 -228 170l-32 -145h-277l25 113q-89 -138 -211 -138q-113 0 -171.5 82t-58.5 244zM305 342q0 -60 23.5 -91.5t66.5 -31.5q31 0 61 26.5t50 65.5l80 365q-6 43 -31.5 68.5t-60.5 25.5q-46 0 -84.5 -49t-60 -120t-33 -139.5t-11.5 -119.5zM846 594h252q10 48 10 78 q0 54 -27.5 86.5t-72.5 32.5q-47 0 -83 -33.5t-53.5 -75t-25.5 -88.5z" />
<glyph unicode="&#xe7;" horiz-adv-x="733" d="M27 360q0 93 21 186.5t63.5 177.5t100 149t136.5 103t168 38q85 0 158.5 -28.5t116.5 -74.5l-127 -206q-40 65 -123 65q-65 0 -119.5 -60t-82.5 -146t-28 -171q0 -86 39.5 -130t106.5 -44q65 0 116 51l39 -219q-92 -76 -223 -76h-2l-51 -79q23 20 47 20q48 0 79.5 -34 t31.5 -91q0 -83 -61 -137.5t-152 -54.5q-123 0 -199 82l68 98q52 -66 129 -66q35 0 56 20.5t21 51.5q0 41 -39 41q-27 0 -47 -27l-86 56l80 137q-113 33 -175 126.5t-62 241.5z" />
<glyph unicode="&#xe8;" horiz-adv-x="860" d="M27 365q0 81 19 169t59.5 173.5t96 154t135.5 110.5t171 42q167 0 247.5 -94.5t80.5 -257.5q0 -106 -39 -259h-512q-4 -20 -4 -59q0 -24 7.5 -47t24 -46.5t51 -37.5t82.5 -14q84 0 168 73l91 -172q-61 -59 -145 -92t-169 -33q-172 0 -268 103t-96 287zM324 594h256 q8 36 8 76q0 55 -29 88t-74 33q-47 0 -83 -33.5t-53 -75t-25 -88.5zM360 1434h234l96 -295h-172z" />
<glyph unicode="&#xe9;" horiz-adv-x="860" d="M27 365q0 81 19 169t59.5 173.5t96 154t135.5 110.5t171 42q167 0 247.5 -94.5t80.5 -257.5q0 -106 -39 -259h-512q-4 -20 -4 -59q0 -24 7.5 -47t24 -46.5t51 -37.5t82.5 -14q84 0 168 73l91 -172q-61 -59 -145 -92t-169 -33q-172 0 -268 103t-96 287zM324 594h256 q8 36 8 76q0 55 -29 88t-74 33q-47 0 -83 -33.5t-53 -75t-25 -88.5zM492 1139l229 295h235l-288 -295h-176z" />
<glyph unicode="&#xea;" horiz-adv-x="860" d="M27 365q0 81 19 169t59.5 173.5t96 154t135.5 110.5t171 42q167 0 247.5 -94.5t80.5 -257.5q0 -106 -39 -259h-512q-4 -20 -4 -59q0 -24 7.5 -47t24 -46.5t51 -37.5t82.5 -14q84 0 168 73l91 -172q-61 -59 -145 -92t-169 -33q-172 0 -268 103t-96 287zM324 594h256 q8 36 8 76q0 55 -29 88t-74 33q-47 0 -83 -33.5t-53 -75t-25 -88.5zM340 1139l190 295h246l66 -295h-146l-65 176l-135 -176h-156z" />
<glyph unicode="&#xeb;" horiz-adv-x="860" d="M27 365q0 81 19 169t59.5 173.5t96 154t135.5 110.5t171 42q167 0 247.5 -94.5t80.5 -257.5q0 -106 -39 -259h-512q-4 -20 -4 -59q0 -24 7.5 -47t24 -46.5t51 -37.5t82.5 -14q84 0 168 73l91 -172q-61 -59 -145 -92t-169 -33q-172 0 -268 103t-96 287zM295 1237 q0 64 49.5 113t112.5 49q55 0 92 -36.5t37 -92.5q0 -64 -49.5 -113t-114.5 -49q-55 0 -91 36.5t-36 92.5zM324 594h256q8 36 8 76q0 55 -29 88t-74 33q-47 0 -83 -33.5t-53 -75t-25 -88.5zM649 1237q0 64 49.5 113t114.5 49q55 0 92 -36.5t37 -92.5q0 -64 -50 -113t-114 -49 q-56 0 -92.5 37t-36.5 92z" />
<glyph unicode="&#xec;" horiz-adv-x="442" d="M-29 0l219 989h279l-219 -989h-279zM131 1434h234l96 -295h-172z" />
<glyph unicode="&#xed;" horiz-adv-x="442" d="M-29 0l219 989h279l-219 -989h-279zM262 1139l230 295h235l-289 -295h-176z" />
<glyph unicode="&#xee;" horiz-adv-x="442" d="M-29 0l219 989h279l-219 -989h-279zM113 1139l190 295h246l65 -295h-145l-66 176l-135 -176h-155z" />
<glyph unicode="&#xef;" horiz-adv-x="442" d="M-29 0l219 989h279l-219 -989h-279zM66 1237q0 64 49 113t112 49q55 0 92 -36.5t37 -92.5q0 -64 -49 -113t-114 -49q-55 0 -91 36.5t-36 92.5zM420 1237q0 64 49.5 113t114.5 49q56 0 92.5 -36.5t36.5 -92.5q0 -64 -50 -113t-114 -49q-55 0 -92 37t-37 92z" />
<glyph unicode="&#xf0;" horiz-adv-x="888" d="M23 342q0 95 28 198t78 192.5t129.5 147.5t171.5 58q83 0 132.5 -47t64.5 -123q-3 147 -21 299l-196 -59l-31 129l209 61q-20 104 -45 170l268 82q34 -105 49 -172l133 39l29 -125l-137 -41q14 -118 14 -258q0 -120 -16.5 -242t-55.5 -245.5t-96 -217.5t-146.5 -153.5 t-199.5 -59.5q-180 0 -271 99.5t-91 267.5zM303 348q0 -66 21.5 -97.5t68.5 -31.5q52 0 93 61.5t60 139t19 145.5q0 52 -21 89.5t-71 37.5q-40 0 -74 -37.5t-54 -93t-31 -112.5t-11 -101z" />
<glyph unicode="&#xf1;" horiz-adv-x="903" d="M-29 0l219 989h279l-29 -121q46 61 113.5 103.5t140.5 42.5q91 0 143 -48t52 -126q0 -34 -8 -58l-170 -782h-279l150 676q6 18 6 35q0 28 -15 43.5t-41 15.5q-67 0 -139 -115l-143 -655h-279zM319 1147q63 274 226 274q34 0 58 -13.5t36.5 -32.5t22.5 -38.5t23.5 -33 t33.5 -13.5q43 0 69 119h144q-27 -127 -84.5 -200.5t-142.5 -73.5q-29 0 -51 9.5t-33.5 24.5t-22 31.5t-17.5 31.5t-19.5 24.5t-29.5 9.5q-43 0 -69 -119h-144z" />
<glyph unicode="&#xf2;" horiz-adv-x="888" d="M27 358q0 87 19.5 178t60.5 177t96.5 153t134.5 107.5t168 40.5q173 0 263.5 -102t90.5 -281q0 -87 -20 -177.5t-61 -176.5t-97 -153t-135.5 -108t-169.5 -41q-170 0 -260 102.5t-90 280.5zM305 352q0 -133 88 -133q44 0 81.5 49t59.5 118.5t34 137t12 113.5 q0 133 -88 133q-44 0 -81.5 -49t-59.5 -119t-34 -137t-12 -113zM354 1434h234l96 -295h-172z" />
<glyph unicode="&#xf3;" horiz-adv-x="888" d="M27 358q0 87 19.5 178t60.5 177t96.5 153t134.5 107.5t168 40.5q173 0 263.5 -102t90.5 -281q0 -87 -20 -177.5t-61 -176.5t-97 -153t-135.5 -108t-169.5 -41q-170 0 -260 102.5t-90 280.5zM305 352q0 -133 88 -133q44 0 81.5 49t59.5 118.5t34 137t12 113.5 q0 133 -88 133q-44 0 -81.5 -49t-59.5 -119t-34 -137t-12 -113zM483 1139l230 295h235l-289 -295h-176z" />
<glyph unicode="&#xf4;" horiz-adv-x="888" d="M27 358q0 87 19.5 178t60.5 177t96.5 153t134.5 107.5t168 40.5q173 0 263.5 -102t90.5 -281q0 -87 -20 -177.5t-61 -176.5t-97 -153t-135.5 -108t-169.5 -41q-170 0 -260 102.5t-90 280.5zM305 352q0 -133 88 -133q44 0 81.5 49t59.5 118.5t34 137t12 113.5 q0 133 -88 133q-44 0 -81.5 -49t-59.5 -119t-34 -137t-12 -113zM336 1139l190 295h246l66 -295h-146l-65 176l-135 -176h-156z" />
<glyph unicode="&#xf5;" horiz-adv-x="888" d="M27 358q0 87 19.5 178t60.5 177t96.5 153t134.5 107.5t168 40.5q173 0 263.5 -102t90.5 -281q0 -87 -20 -177.5t-61 -176.5t-97 -153t-135.5 -108t-169.5 -41q-170 0 -260 102.5t-90 280.5zM305 352q0 -133 88 -133q44 0 81.5 49t59.5 118.5t34 137t12 113.5 q0 133 -88 133q-44 0 -81.5 -49t-59.5 -119t-34 -137t-12 -113zM311 1147q63 274 226 274q34 0 58 -13.5t36.5 -32.5t22.5 -38.5t23.5 -33t33.5 -13.5q43 0 69 119h144q-27 -127 -85 -200.5t-143 -73.5q-42 0 -69 20.5t-37 45t-26.5 45t-39.5 20.5q-43 0 -69 -119h-144z" />
<glyph unicode="&#xf6;" horiz-adv-x="888" d="M27 358q0 87 19.5 178t60.5 177t96.5 153t134.5 107.5t168 40.5q173 0 263.5 -102t90.5 -281q0 -87 -20 -177.5t-61 -176.5t-97 -153t-135.5 -108t-169.5 -41q-170 0 -260 102.5t-90 280.5zM289 1237q0 64 49.5 113t112.5 49q55 0 92 -36.5t37 -92.5q0 -64 -49.5 -113 t-114.5 -49q-55 0 -91 36.5t-36 92.5zM305 352q0 -133 88 -133q44 0 81.5 49t59.5 118.5t34 137t12 113.5q0 133 -88 133q-44 0 -81.5 -49t-59.5 -119t-34 -137t-12 -113zM643 1237q0 64 49.5 113t114.5 49q55 0 92 -36.5t37 -92.5q0 -64 -50 -113t-114 -49q-56 0 -92.5 37 t-36.5 92z" />
<glyph unicode="&#xf7;" horiz-adv-x="765" d="M82 606l39 168h647l-39 -168h-647zM229 377q0 59 42 100t100 41q49 0 82.5 -34.5t33.5 -84.5q0 -57 -42 -98t-99 -41q-49 0 -83 34.5t-34 82.5zM362 977q0 57 42 99t100 42q49 0 83 -34.5t34 -84.5q0 -58 -42 -98.5t-100 -40.5q-48 0 -82.5 34t-34.5 83z" />
<glyph unicode="&#xf8;" horiz-adv-x="888" d="M-57 0l127 147q-43 85 -43 211q0 87 19.5 178t60.5 177t96.5 153t134.5 107.5t168 40.5q146 0 237 -78l48 53h153l-127 -149q43 -85 43 -209q0 -87 -20 -177.5t-61 -176.5t-97 -153t-135.5 -108t-169.5 -41q-148 0 -236 76l-43 -51h-155zM311 428l252 297q-20 45 -71 45 q-36 0 -68 -33.5t-54 -87.5t-37 -110t-22 -111zM322 260q20 -41 71 -41q36 0 67.5 32.5t53.5 84.5t37 108t22 111z" />
<glyph unicode="&#xf9;" horiz-adv-x="903" d="M12 150q0 33 8 57l170 782h279l-150 -670q-6 -27 -6 -45q0 -25 15 -40t41 -15q38 0 74 32.5t63 78.5l145 659h279l-219 -989h-279l29 121q-48 -62 -114.5 -104t-139.5 -42q-91 0 -143 48.5t-52 126.5zM362 1434h234l96 -295h-172z" />
<glyph unicode="&#xfa;" horiz-adv-x="903" d="M12 150q0 33 8 57l170 782h279l-150 -670q-6 -27 -6 -45q0 -25 15 -40t41 -15q38 0 74 32.5t63 78.5l145 659h279l-219 -989h-279l29 121q-48 -62 -114.5 -104t-139.5 -42q-91 0 -143 48.5t-52 126.5zM492 1139l229 295h235l-288 -295h-176z" />
<glyph unicode="&#xfb;" horiz-adv-x="903" d="M12 150q0 33 8 57l170 782h279l-150 -670q-6 -27 -6 -45q0 -25 15 -40t41 -15q38 0 74 32.5t63 78.5l145 659h279l-219 -989h-279l29 121q-48 -62 -114.5 -104t-139.5 -42q-91 0 -143 48.5t-52 126.5zM342 1139l190 295h246l66 -295h-146l-65 176l-135 -176h-156z" />
<glyph unicode="&#xfc;" horiz-adv-x="903" d="M12 150q0 33 8 57l170 782h279l-150 -670q-6 -27 -6 -45q0 -25 15 -40t41 -15q38 0 74 32.5t63 78.5l145 659h279l-219 -989h-279l29 121q-48 -62 -114.5 -104t-139.5 -42q-91 0 -143 48.5t-52 126.5zM295 1237q0 64 49.5 113t112.5 49q55 0 92 -36.5t37 -92.5 q0 -64 -49.5 -113t-114.5 -49q-55 0 -91 36.5t-36 92.5zM649 1237q0 64 49.5 113t114.5 49q55 0 92 -36.5t37 -92.5q0 -64 -50 -113t-114 -49q-56 0 -92.5 37t-36.5 92z" />
<glyph unicode="&#xfd;" horiz-adv-x="835" d="M-104 -373l90 228q13 -13 47 -13q45 0 80 62l45 86l-54 999h285l-14 -639l274 639h299l-571 -1143q-74 -143 -144 -195t-174 -52q-97 0 -163 28zM449 1139l229 295h235l-288 -295h-176z" />
<glyph unicode="&#xfe;" d="M-111 -377l383 1743h279l-109 -489q92 137 211 137q113 0 171.5 -82t58.5 -244q0 -104 -25.5 -223.5t-73 -231t-128 -185t-177.5 -73.5q-159 0 -205 146l-108 -498h-277zM317 313q7 -42 33 -68t60 -26q46 0 84 49t59 120t32 139.5t11 119.5q0 123 -90 123 q-28 0 -57.5 -26.5t-49.5 -65.5z" />
<glyph unicode="&#xff;" horiz-adv-x="835" d="M-104 -373l90 228q13 -13 47 -13q45 0 80 62l45 86l-54 999h285l-14 -639l274 639h299l-571 -1143q-74 -143 -144 -195t-174 -52q-97 0 -163 28zM254 1237q0 64 49.5 113t112.5 49q56 0 92.5 -36.5t36.5 -92.5q0 -64 -49.5 -113t-114.5 -49q-55 0 -91 36.5t-36 92.5z M608 1237q0 64 49.5 113t114.5 49q56 0 92.5 -36.5t36.5 -92.5q0 -64 -50 -113t-114 -49q-55 0 -92 37t-37 92z" />
<glyph unicode="&#x152;" horiz-adv-x="1335" d="M49 432q0 110 23.5 236t73.5 253.5t118 231t166.5 168.5t210.5 65q56 0 105.5 -27t68.5 -79l19 86h641l-60 -270h-332l-59 -267h319l-61 -270h-317l-64 -289h334l-61 -270h-642l17 86q-41 -59 -98 -85t-107 -26q-132 0 -213.5 120.5t-81.5 336.5zM365 426 q0 -87 21 -131.5t71 -44.5q41 0 85 39.5t76 113.5l125 560q-5 149 -96 149q-65 0 -121 -78.5t-89.5 -191.5t-52.5 -225t-19 -191z" />
<glyph unicode="&#x153;" horiz-adv-x="1376" d="M27 358q0 92 20.5 184.5t61 177t96.5 150.5t133 105t164 39q176 0 256 -156q51 75 122.5 115.5t149.5 40.5q154 0 240 -86t86 -266q0 -90 -41 -259h-504q-4 -16 -4 -57q0 -61 37 -103t123 -42q90 0 166 73l90 -174q-65 -62 -148 -93.5t-162 -31.5q-196 0 -260 160 q-65 -82 -129.5 -121t-150.5 -39q-173 0 -259.5 103t-86.5 280zM305 352q0 -133 88 -133q43 0 78.5 48t56 117.5t32 137t11.5 115.5q0 133 -86 133q-43 0 -79.5 -46t-57 -114.5t-32 -136.5t-11.5 -121zM850 594h248q8 36 8 76q0 121 -96 121q-68 0 -107.5 -59.5 t-52.5 -137.5z" />
<glyph unicode="&#x178;" horiz-adv-x="942" d="M178 1366h316l41 -514l270 514h338l-506 -807l-121 -559h-311l123 559zM391 1579q0 64 49.5 113t112.5 49q55 0 92 -36.5t37 -92.5q0 -64 -49.5 -113t-114.5 -49q-55 0 -91 36.5t-36 92.5zM745 1579q0 64 49.5 113t114.5 49q55 0 92 -36.5t37 -92.5q0 -64 -50 -113 t-114 -49q-56 0 -92.5 37t-36.5 92z" />
<glyph unicode="&#x2c6;" horiz-adv-x="501" d="M141 1139l191 295h246l65 -295h-145l-66 176l-135 -176h-156z" />
<glyph unicode="&#x2dc;" horiz-adv-x="555" d="M143 1147q63 274 226 274q34 0 58 -13.5t36.5 -32.5t22.5 -38.5t23.5 -33t33.5 -13.5q43 0 69 119h144q-27 -127 -85 -200.5t-143 -73.5q-42 0 -69 20.5t-37 45t-26.5 45t-39.5 20.5q-43 0 -69 -119h-144z" />
<glyph unicode="&#x2000;" horiz-adv-x="897" />
<glyph unicode="&#x2001;" horiz-adv-x="1794" />
<glyph unicode="&#x2002;" horiz-adv-x="897" />
<glyph unicode="&#x2003;" horiz-adv-x="1794" />
<glyph unicode="&#x2004;" horiz-adv-x="598" />
<glyph unicode="&#x2005;" horiz-adv-x="448" />
<glyph unicode="&#x2006;" horiz-adv-x="299" />
<glyph unicode="&#x2007;" horiz-adv-x="299" />
<glyph unicode="&#x2008;" horiz-adv-x="224" />
<glyph unicode="&#x2009;" horiz-adv-x="358" />
<glyph unicode="&#x200a;" horiz-adv-x="99" />
<glyph unicode="&#x2010;" horiz-adv-x="499" d="M35 379l51 233h377l-51 -233h-377z" />
<glyph unicode="&#x2011;" horiz-adv-x="499" d="M35 379l51 233h377l-51 -233h-377z" />
<glyph unicode="&#x2012;" horiz-adv-x="499" d="M35 379l51 233h377l-51 -233h-377z" />
<glyph unicode="&#x2013;" horiz-adv-x="942" d="M35 379l51 233h819l-51 -233h-819z" />
<glyph unicode="&#x2014;" horiz-adv-x="1310" d="M35 379l51 233h1188l-51 -233h-1188z" />
<glyph unicode="&#x2018;" horiz-adv-x="536" d="M184 967q0 119 89.5 238.5t222.5 183.5l98 -103q-64 -29 -123 -75t-82 -97q4 2 21 2q56 0 93.5 -36.5t37.5 -102.5q0 -74 -58 -129t-131 -55q-69 0 -118.5 46t-49.5 128z" />
<glyph unicode="&#x2019;" horiz-adv-x="536" d="M199 893q63 29 121.5 75t82.5 97q-6 -2 -22 -2q-56 0 -94.5 36.5t-38.5 102.5q0 74 59.5 129t132.5 55q69 0 117.5 -46t48.5 -128q0 -119 -88 -238.5t-221 -182.5z" />
<glyph unicode="&#x201a;" horiz-adv-x="536" d="M-37 -170q63 29 122 75t83 97q-4 -2 -23 -2q-55 0 -93 37.5t-38 103.5q0 74 59 128.5t132 54.5q69 0 117.5 -46t48.5 -128q0 -119 -88.5 -237.5t-221.5 -182.5z" />
<glyph unicode="&#x201c;" horiz-adv-x="966" d="M190 967q0 119 89 239t223 183l96 -103q-63 -29 -122 -75t-83 -97q4 2 23 2q57 0 95 -36.5t38 -102.5q0 -74 -59.5 -129t-133.5 -55q-69 0 -117.5 46t-48.5 128zM621 967q0 119 88 239t221 183l96 -103q-63 -29 -122 -75t-83 -97q6 2 23 2q57 0 95 -36.5t38 -102.5 q0 -74 -59.5 -129t-133.5 -55q-69 0 -116 46t-47 128z" />
<glyph unicode="&#x201d;" horiz-adv-x="966" d="M199 893q63 29 121.5 75t82.5 97q-6 -2 -22 -2q-56 0 -94.5 36.5t-38.5 102.5q0 74 59.5 129t132.5 55q69 0 117.5 -46t48.5 -128q0 -119 -88 -238.5t-221 -182.5zM627 893q64 28 122.5 74.5t81.5 97.5q-4 -2 -22 -2q-56 0 -93.5 36.5t-37.5 102.5q0 74 58.5 129 t131.5 55q69 0 117.5 -46t48.5 -128q0 -119 -88 -238.5t-221 -182.5z" />
<glyph unicode="&#x201e;" horiz-adv-x="964" d="M-37 -170q63 29 122 75t83 97q-4 -2 -23 -2q-55 0 -93 37.5t-38 103.5q0 74 59 128.5t132 54.5q69 0 117.5 -46t48.5 -128q0 -119 -88.5 -237.5t-221.5 -182.5zM391 -170q64 29 123.5 75t83.5 97q-4 -2 -23 -2q-57 0 -95 37.5t-38 103.5q0 74 59 128.5t132 54.5 q69 0 117.5 -46t48.5 -128q0 -119 -88.5 -237.5t-221.5 -182.5z" />
<glyph unicode="&#x2022;" horiz-adv-x="733" d="M119 473q0 110 81.5 189t192.5 79q95 0 158 -63t63 -158q0 -110 -81.5 -189t-192.5 -79q-95 0 -158 63t-63 158z" />
<glyph unicode="&#x2026;" horiz-adv-x="1591" d="M14 135q0 76 57 132.5t132 56.5q67 0 112 -46.5t45 -113.5q0 -77 -56 -133t-134 -56q-64 0 -110 47t-46 113zM545 135q0 76 56.5 132.5t131.5 56.5q67 0 113.5 -47t46.5 -113q0 -76 -57 -132.5t-134 -56.5q-66 0 -111.5 47t-45.5 113zM1075 135q0 76 57 132.5t134 56.5 q66 0 111.5 -47t45.5 -113q0 -76 -56.5 -132.5t-133.5 -56.5q-66 0 -112 47t-46 113z" />
<glyph unicode="&#x202f;" horiz-adv-x="358" />
<glyph unicode="&#x2039;" horiz-adv-x="516" d="M59 498l267 362h213l-273 -371l101 -360h-205z" />
<glyph unicode="&#x203a;" horiz-adv-x="516" d="M-23 129l273 371l-100 360h204l103 -368l-267 -363h-213z" />
<glyph unicode="&#x205f;" horiz-adv-x="448" />
<glyph unicode="&#x20ac;" horiz-adv-x="956" d="M18 457l37 170h49q7 40 25 116h-49l41 170h57q36 99 83 180.5t110 150t146.5 107t178.5 38.5q79 0 141.5 -25.5t103 -66.5t67.5 -98t39 -115.5t14 -122.5l-287 -56q-7 209 -96 209q-97 0 -176 -201h188l-39 -170h-202q-3 -17 -12.5 -56.5t-12.5 -59.5h203l-37 -170h-187 v-31q0 -176 93 -176q82 0 161 164l248 -101q-74 -166 -176.5 -252t-247.5 -86q-189 0 -290 121.5t-101 335.5v25h-72z" />
<glyph unicode="&#x2122;" horiz-adv-x="765" d="M213 915l88 398h-86l10 53h230l-11 -53h-86l-88 -398h-57zM430 915l98 451h88l21 -322l160 322h88l-99 -451h-57l82 373l-195 -373h-16l-31 373l-82 -373h-57z" />
<glyph unicode="&#x25fc;" horiz-adv-x="993" d="M0 0v993h993v-993h-993z" />
</font>
</defs>
</svg>
